<?xml version="1.0" encoding="UTF-8"?>
<!DOCTYPE svg PUBLIC "-//W3C//DTD SVG 1.1//EN" "http://www.w3.org/Graphics/SVG/1.1/DTD/svg11.dtd">
<svg xmlns="http://www.w3.org/2000/svg" version="1.1" width="14932px" height="2452px" style="shape-rendering:geometricPrecision; text-rendering:geometricPrecision; image-rendering:optimizeQuality; fill-rule:evenodd; clip-rule:evenodd" xmlns:xlink="http://www.w3.org/1999/xlink">
<g><path style="opacity:0.999" fill="#ff6d03" d="M 2821.5,-0.5 C 2848.17,-0.5 2874.83,-0.5 2901.5,-0.5C 3035.17,133.833 3169.17,267.833 3303.5,401.5C 3279.5,426.167 3255.17,450.5 3230.5,474.5C 3075.5,320.167 2920.83,165.5 2766.5,10.5C 2784.66,5.42191 2802.99,1.75525 2821.5,-0.5 Z"/></g>
<g><path style="opacity:0.998" fill="#ff6600" d="M 2901.5,-0.5 C 3169.5,-0.5 3437.5,-0.5 3705.5,-0.5C 3571.83,133.833 3437.83,267.833 3303.5,401.5C 3169.17,267.833 3035.17,133.833 2901.5,-0.5 Z"/></g>
<g><path style="opacity:0.999" fill="#ff7205" d="M 2766.5,10.5 C 2920.83,165.5 3075.5,320.167 3230.5,474.5C 3213.83,491.833 3196.83,508.833 3179.5,525.5C 3016.5,363.167 2853.83,200.5 2691.5,37.5C 2715.76,26.5403 2740.76,17.5403 2766.5,10.5 Z"/></g>
<g><path style="opacity:0.999" fill="#fe7506" d="M 2691.5,37.5 C 2853.83,200.5 3016.5,363.167 3179.5,525.5C 3172.5,533.167 3165.17,540.5 3157.5,547.5C 2991.83,382.5 2826.5,217.167 2661.5,51.5C 2671.26,46.2866 2681.26,41.6199 2691.5,37.5 Z"/></g>
<g><path style="opacity:0.999" fill="#fe7908" d="M 2661.5,51.5 C 2826.5,217.167 2991.83,382.5 3157.5,547.5C 3133.5,572.167 3109.17,596.5 3084.5,620.5C 2913.17,448.833 2741.83,277.167 2570.5,105.5C 2599.31,85.248 2629.65,67.248 2661.5,51.5 Z"/></g>
<g><path style="opacity:0.999" fill="#fe7f0b" d="M 2570.5,105.5 C 2741.83,277.167 2913.17,448.833 3084.5,620.5C 3061.5,644.167 3038.17,667.5 3014.5,690.5C 2840.5,516.167 2666.5,341.833 2492.5,167.5C 2517.04,144.908 2543.04,124.242 2570.5,105.5 Z"/></g>
<g><path style="opacity:0.998" fill="#fe820c" d="M 2492.5,167.5 C 2666.5,341.833 2840.5,516.167 3014.5,690.5C 3009.83,695.833 3004.83,700.833 2999.5,705.5C 2825.5,531.167 2651.5,356.833 2477.5,182.5C 2482.17,177.167 2487.17,172.167 2492.5,167.5 Z"/></g>
<g><path style="opacity:0.999" fill="#fe860e" d="M 2477.5,182.5 C 2651.5,356.833 2825.5,531.167 2999.5,705.5C 2975.5,730.167 2951.17,754.5 2926.5,778.5C 2752.5,604.167 2578.5,429.833 2404.5,255.5C 2428.5,230.833 2452.83,206.5 2477.5,182.5 Z"/></g>
<g><path style="opacity:0.999" fill="#fe8c11" d="M 2404.5,255.5 C 2578.5,429.833 2752.5,604.167 2926.5,778.5C 2902.5,803.167 2878.17,827.5 2853.5,851.5C 2679.5,677.167 2505.5,502.833 2331.5,328.5C 2355.5,303.833 2379.83,279.5 2404.5,255.5 Z"/></g>
<g><path style="opacity:0.993" fill="#198475" d="M 1075.5,275.5 C 939.863,406.47 804.529,537.803 669.5,669.5C 538.188,538.854 407.188,407.854 276.5,276.5C 542.832,275.5 809.166,275.167 1075.5,275.5 Z"/></g>
<g><path style="opacity:0.997" fill="#198274" d="M 1075.5,275.5 C 1104.85,275.126 1134.19,275.626 1163.5,277C 1179.07,278.651 1194.41,281.484 1209.5,285.5C 1053.16,437.17 896.497,588.503 739.5,739.5C 715.833,716.5 692.5,693.167 669.5,669.5C 804.529,537.803 939.863,406.47 1075.5,275.5 Z"/></g>
<g><path style="opacity:0.998" fill="#187f72" d="M 1209.5,285.5 C 1245.46,295.149 1280.12,308.149 1313.5,324.5C 1146.17,486.833 978.833,649.167 811.5,811.5C 787.167,787.833 763.167,763.833 739.5,739.5C 896.497,588.503 1053.16,437.17 1209.5,285.5 Z"/></g>
<g><path style="opacity:0.998" fill="#187d6f" d="M 1313.5,324.5 C 1323.32,329.245 1332.99,334.245 1342.5,339.5C 1172.53,503.806 1002.53,668.139 832.5,832.5C 825.167,825.833 818.167,818.833 811.5,811.5C 978.833,649.167 1146.17,486.833 1313.5,324.5 Z"/></g>
<g><path style="opacity:0.999" fill="#fd9011" d="M 2331.5,328.5 C 2505.5,502.833 2679.5,677.167 2853.5,851.5C 2852.83,852.833 2851.83,853.833 2850.5,854.5C 2676.17,680.5 2501.83,506.5 2327.5,332.5C 2328.5,330.833 2329.83,329.5 2331.5,328.5 Z"/></g>
<g><path style="opacity:0.999" fill="#fd9213" d="M 2327.5,332.5 C 2501.83,506.5 2676.17,680.5 2850.5,854.5C 2827.5,878.167 2804.17,901.5 2780.5,924.5C 2606.5,750.167 2432.5,575.833 2258.5,401.5C 2281.17,378.167 2304.17,355.167 2327.5,332.5 Z"/></g>
<g><path style="opacity:0.998" fill="#17796d" d="M 1342.5,339.5 C 1373.06,355.598 1402.06,373.931 1429.5,394.5C 1253.53,563.467 1078.2,733.134 903.5,903.5C 879.5,880.167 855.833,856.5 832.5,832.5C 1002.53,668.139 1172.53,503.806 1342.5,339.5 Z"/></g>
<g><path style="opacity:0.998" fill="#167769" d="M 1429.5,394.5 C 1432.64,396.242 1435.64,398.242 1438.5,400.5C 1262.81,570.858 1086.81,740.858 910.5,910.5C 907.833,908.5 905.5,906.167 903.5,903.5C 1078.2,733.134 1253.53,563.467 1429.5,394.5 Z"/></g>
<g><path style="opacity:0.998" fill="#157367" d="M 1438.5,400.5 C 1459.37,415.626 1478.71,432.626 1496.5,451.5C 1498.43,454.767 1500.76,457.767 1503.5,460.5C 1327.47,632.2 1150.8,803.2 973.5,973.5C 952.167,952.833 931.167,931.833 910.5,910.5C 1086.81,740.858 1262.81,570.858 1438.5,400.5 Z"/></g>
<g><path style="opacity:0.999" fill="#fd9916" d="M 2258.5,401.5 C 2432.5,575.833 2606.5,750.167 2780.5,924.5C 2752.5,953.167 2724.17,981.5 2695.5,1009.5C 2521.5,835.167 2347.5,660.833 2173.5,486.5C 2201.5,457.833 2229.83,429.5 2258.5,401.5 Z"/></g>
<g><path style="opacity:0.999" fill="#156f63" d="M 1503.5,460.5 C 1507.18,464.183 1510.51,468.183 1513.5,472.5C 1337.19,643.139 1160.86,813.806 984.5,984.5C 980.5,981.167 976.833,977.5 973.5,973.5C 1150.8,803.2 1327.47,632.2 1503.5,460.5 Z"/></g>
<g><path style="opacity:0.999" fill="#146c61" d="M 1513.5,472.5 C 1527.15,488.444 1538.81,505.778 1548.5,524.5C 1374.53,691.803 1200.86,859.47 1027.5,1027.5C 1012.83,1013.5 998.5,999.167 984.5,984.5C 1160.86,813.806 1337.19,643.139 1513.5,472.5 Z"/></g>
<g><path style="opacity:0.999" fill="#fc9d17" d="M 2173.5,486.5 C 2347.5,660.833 2521.5,835.167 2695.5,1009.5C 2692.5,1013.17 2689.17,1016.5 2685.5,1019.5C 2511.5,845.167 2337.5,670.833 2163.5,496.5C 2166.5,492.833 2169.83,489.5 2173.5,486.5 Z"/></g>
<g><path style="opacity:0.999" fill="#fd9f19" d="M 2163.5,496.5 C 2337.5,670.833 2511.5,845.167 2685.5,1019.5C 2664.83,1040.83 2643.83,1061.83 2622.5,1082.5C 2448.5,908.167 2274.5,733.833 2100.5,559.5C 2121.17,538.167 2142.17,517.167 2163.5,496.5 Z"/></g>
<g><path style="opacity:0.998" fill="#55214c" d="M 1496.5,451.5 C 1534.5,488.833 1572.17,526.5 1609.5,564.5C 1609.5,1005.17 1609.5,1445.83 1609.5,1886.5C 1574.17,1922.5 1538.5,1958.17 1502.5,1993.5C 1519.03,1973.29 1534.03,1951.96 1547.5,1929.5C 1568.65,1891.71 1582.65,1851.37 1589.5,1808.5C 1602.62,1731.02 1592.29,1656.69 1558.5,1585.5C 1558.5,1345.17 1558.5,1104.83 1558.5,864.5C 1563.44,852.957 1568.1,841.29 1572.5,829.5C 1580.62,807.464 1586.29,784.797 1589.5,761.5C 1592.77,743.792 1594.43,725.792 1594.5,707.5C 1594.83,697.652 1594.49,687.986 1593.5,678.5C 1592.95,659.403 1590.28,640.736 1585.5,622.5C 1584.43,615.573 1582.77,608.906 1580.5,602.5C 1575.31,582.257 1567.98,562.924 1558.5,544.5C 1556.21,537.248 1552.87,530.581 1548.5,524.5C 1538.81,505.778 1527.15,488.444 1513.5,472.5C 1510.51,468.183 1507.18,464.183 1503.5,460.5C 1500.76,457.767 1498.43,454.767 1496.5,451.5 Z"/></g>
<g><path style="opacity:0.999" fill="#14695e" d="M 1548.5,524.5 C 1552.87,530.581 1556.21,537.248 1558.5,544.5C 1387.16,711.169 1215.5,877.503 1043.5,1043.5C 1037.83,1038.5 1032.5,1033.17 1027.5,1027.5C 1200.86,859.47 1374.53,691.803 1548.5,524.5 Z"/></g>
<g><path style="opacity:0.999" fill="#13665b" d="M 1558.5,544.5 C 1567.98,562.924 1575.31,582.257 1580.5,602.5C 1415.16,763.169 1249.5,923.503 1083.5,1083.5C 1069.83,1070.5 1056.5,1057.17 1043.5,1043.5C 1215.5,877.503 1387.16,711.169 1558.5,544.5 Z"/></g>
<g><path style="opacity:0.995" fill="#fefffe" d="M 4073.5,547.5 C 4108.09,545.19 4136.92,556.857 4160,582.5C 4279.28,745.448 4398.95,908.114 4519,1070.5C 4637,909.833 4755,749.167 4873,588.5C 4902.77,551.578 4940.61,539.745 4986.5,553C 5027.47,570.155 5049.14,600.989 5051.5,645.5C 5051.37,663.353 5046.87,680.02 5038,695.5C 4905.5,876 4773,1056.5 4640.5,1237C 4752.72,1388.89 4864.55,1541.05 4976,1693.5C 4998.88,1721.71 5020.21,1751.05 5040,1781.5C 5059.1,1823.32 5053.76,1861.66 5024,1896.5C 4988.52,1928.6 4949.02,1934.44 4905.5,1914C 4895.32,1907.82 4886.16,1900.32 4878,1891.5C 4758.33,1728.5 4638.67,1565.5 4519,1402.5C 4399.61,1564.22 4280.61,1726.22 4162,1888.5C 4130.73,1923.86 4092.56,1934.03 4047.5,1919C 4003.82,1898.5 3983.65,1864 3987,1815.5C 3988.89,1801.16 3993.56,1787.83 4001,1775.5C 4133.21,1596.25 4265.04,1416.75 4396.5,1237C 4265.4,1057.56 4133.9,878.397 4002,699.5C 3985.24,671.749 3981.9,642.416 3992,611.5C 4007.09,574.714 4034.26,553.381 4073.5,547.5 Z"/></g>
<g><path style="opacity:0.996" fill="#fefffe" d="M 5936.5,547.5 C 5982.66,545.154 6017.16,563.82 6040,603.5C 6208.06,999.67 6375.72,1396 6543,1792.5C 6554.17,1843.29 6538.34,1883.12 6495.5,1912C 6464.27,1928.07 6432.27,1929.73 6399.5,1917C 6376,1905.5 6358.5,1888 6347,1864.5C 6288.21,1725.92 6229.71,1587.25 6171.5,1448.5C 6022.5,1448.33 5873.5,1448.5 5724.5,1449C 5665.2,1588.43 5606.04,1727.93 5547,1867.5C 5523.4,1909.89 5487.24,1929.05 5438.5,1925C 5394.47,1917.31 5365.64,1892.14 5352,1849.5C 5346.12,1825.61 5347.78,1802.28 5357,1779.5C 5522.61,1389.28 5687.94,998.949 5853,608.5C 5870,573.332 5897.83,552.999 5936.5,547.5 Z M 5947.5,922.5 C 5993.58,1030.21 6039.58,1138.04 6085.5,1246C 5993.83,1246.83 5902.16,1246.67 5810.5,1245.5C 5855.98,1137.72 5901.65,1030.06 5947.5,922.5 Z"/></g>
<g><path style="opacity:0.996" fill="#fefffe" d="M 6952.5,547.5 C 6988.57,545.791 7018.4,558.458 7042,585.5C 7301.29,909.122 7560.95,1232.46 7821,1555.5C 7821.01,1247.14 7821.67,938.809 7823,630.5C 7831.66,591.501 7854.83,565.335 7892.5,552C 7941.45,540.087 7980.28,554.587 8009,595.5C 8016.47,608.569 8021.13,622.569 8023,637.5C 8023.67,1035.5 8023.67,1433.5 8023,1831.5C 8016.64,1875.42 7992.81,1905.25 7951.5,1921C 7907.5,1933.13 7870,1922.63 7839,1889.5C 7578.57,1561.65 7317.91,1233.98 7057,906.5C 7057,1218.86 7056.33,1531.19 7055,1843.5C 7045.66,1884.5 7020.83,1911 6980.5,1923C 6930.51,1932.41 6892.34,1915.58 6866,1872.5C 6860.01,1860.87 6856.34,1848.54 6855,1835.5C 6854.33,1438.5 6854.33,1041.5 6855,644.5C 6864.14,588.526 6896.64,556.193 6952.5,547.5 Z"/></g>
<g><path style="opacity:0.995" fill="#fefffe" d="M 11339.5,547.5 C 11380.6,546.282 11412.4,562.615 11435,596.5C 11445.5,614.504 11450,633.837 11448.5,654.5C 11449.3,888.794 11449.8,1123.13 11450,1357.5C 11460.6,1478.3 11514.1,1574.8 11610.5,1647C 11718,1720.7 11834.7,1739.7 11960.5,1704C 12063.9,1669.55 12141.4,1604.38 12193,1508.5C 12218.4,1457.83 12232.4,1404.17 12235,1347.5C 12235.3,1110.5 12235.7,873.5 12236,636.5C 12245.2,584.971 12275.7,555.471 12327.5,548C 12369.4,545.857 12401.6,562.357 12424,597.5C 12431.1,610.277 12435.5,623.944 12437,638.5C 12437.7,878.167 12437.7,1117.83 12437,1357.5C 12425.7,1538.95 12349.9,1686.45 12209.5,1800C 12061.3,1911.24 11896,1948.58 11713.5,1912C 11572.2,1878.66 11457.1,1805.16 11368,1691.5C 11290.5,1588.07 11250.2,1471.4 11247,1341.5C 11246.8,1227.17 11246.7,1112.83 11246.5,998.5C 11246.8,881.912 11246.8,765.412 11246.5,649C 11251.3,591.004 11282.3,557.171 11339.5,547.5 Z"/></g>
<g><path style="opacity:0.995" fill="#fefffe" d="M 14931.5,1810.5 C 14931.5,1817.83 14931.5,1825.17 14931.5,1832.5C 14922.7,1883.83 14892.7,1914.67 14841.5,1925C 14791.8,1929.05 14755.3,1909.22 14732,1865.5C 14597.4,1550.97 14462.4,1236.63 14327,922.5C 14194.9,1235.75 14062.3,1548.75 13929,1861.5C 13912.8,1897.35 13885.3,1918.51 13846.5,1925C 13802.3,1928.75 13768.2,1912.25 13744,1875.5C 13607.9,1557.96 13472.9,1239.96 13339,921.5C 13203.5,1237.08 13068.1,1552.75 12933,1868.5C 12909.2,1910.65 12873,1929.48 12824.5,1925C 12775.9,1915.71 12746.4,1886.88 12736,1838.5C 12733.2,1819.32 12735.2,1800.65 12742,1782.5C 12909.9,1390.95 13077.6,999.283 13245,607.5C 13265.1,568.825 13297.1,548.825 13341,547.5C 13384.8,549.204 13415.8,569.871 13434,609.5C 13566.8,923.582 13699.8,1237.58 13833,1551.5C 13963.9,1243.28 14094.6,934.949 14225,626.5C 14231.1,608.768 14240.1,592.768 14252,578.5C 14281.7,550.04 14316.5,541.207 14356.5,552C 14387,561.214 14408.9,580.38 14422,609.5C 14590.7,1004.17 14759.3,1398.83 14928,1793.5C 14929.1,1799.31 14930.3,1804.98 14931.5,1810.5 Z"/></g>
<g><path style="opacity:0.996" fill="#fefffe" d="M 8487.5,558.5 C 8642.5,558.333 8797.5,558.5 8952.5,559C 9140.05,568.231 9298.55,640.064 9428,774.5C 9553,912.085 9613.33,1074.42 9609,1261.5C 9597.66,1473.7 9509.16,1645.2 9343.5,1776C 9231.66,1859.51 9105.66,1905.51 8965.5,1914C 8808.51,1915.63 8651.51,1915.96 8494.5,1915C 8438.84,1909.01 8406.01,1878.51 8396,1823.5C 8395.33,1432.17 8395.33,1040.83 8396,649.5C 8402.48,604.689 8427.31,575.522 8470.5,562C 8476.26,560.614 8481.93,559.448 8487.5,558.5 Z M 8597.5,760.5 C 8712.5,760.333 8827.5,760.5 8942.5,761C 9098.22,769.095 9223.05,834.595 9317,957.5C 9402.05,1080.09 9426.71,1214.09 9391,1359.5C 9355.66,1485.09 9282.16,1581.26 9170.5,1648C 9103.91,1686.08 9032.25,1707.41 8955.5,1712C 8836.17,1712.5 8716.83,1712.67 8597.5,1712.5C 8597.5,1395.17 8597.5,1077.83 8597.5,760.5 Z"/></g>
<g><path style="opacity:0.996" fill="#fefffe" d="M 10003.5,558.5 C 10288.8,558.333 10574.2,558.5 10859.5,559C 10904.9,566.079 10934,591.579 10947,635.5C 10956.1,688.135 10937.3,726.968 10890.5,752C 10883.1,755.14 10875.4,757.473 10867.5,759C 10614.5,760.494 10361.5,760.994 10108.5,760.5C 10108.5,885.167 10108.5,1009.83 10108.5,1134.5C 10342.5,1134.01 10576.5,1134.51 10810.5,1136C 10855.1,1145.31 10882.6,1172.14 10893,1216.5C 10899.6,1270.74 10878.1,1308.9 10828.5,1331C 10821.7,1333.43 10814.7,1335.1 10807.5,1336C 10574.5,1336.5 10341.5,1336.67 10108.5,1336.5C 10108.5,1461.83 10108.5,1587.17 10108.5,1712.5C 10360.2,1712.01 10611.8,1712.51 10863.5,1714C 10900.1,1720.57 10926.3,1740.74 10942,1774.5C 10958.1,1820.56 10948.3,1860.06 10912.5,1893C 10895.2,1906.44 10875.5,1913.77 10853.5,1915C 10572.2,1915.67 10290.8,1915.67 10009.5,1915C 9963.14,1910.24 9930.97,1886.41 9913,1843.5C 9909.89,1834.75 9907.89,1825.75 9907,1816.5C 9906.33,1429.5 9906.33,1042.5 9907,655.5C 9912.77,613.061 9935.27,583.228 9974.5,566C 9984.1,562.686 9993.76,560.186 10003.5,558.5 Z"/></g>
<g><path style="opacity:0.997" fill="#fca21b" d="M 2100.5,559.5 C 2274.5,733.833 2448.5,908.167 2622.5,1082.5C 2575.17,1130.17 2527.83,1177.83 2480.5,1225.5C 2479.83,1225.5 2479.17,1225.5 2478.5,1225.5C 2339.53,1086.03 2200.37,946.701 2061,807.5C 2025.59,764.164 2014.59,715.164 2028,660.5C 2034.9,637.021 2046.24,616.021 2062,597.5C 2074.7,584.631 2087.53,571.965 2100.5,559.5 Z"/></g>
<g><path style="opacity:0.999" fill="#59224f" d="M 1609.5,564.5 C 1631.5,585.833 1653.17,607.5 1674.5,629.5C 1674.5,1026.83 1674.5,1424.17 1674.5,1821.5C 1653.17,1843.5 1631.5,1865.17 1609.5,1886.5C 1609.5,1445.83 1609.5,1005.17 1609.5,564.5 Z"/></g>
<g><path style="opacity:0.999" fill="#126258" d="M 1580.5,602.5 C 1582.77,608.906 1584.43,615.573 1585.5,622.5C 1422.17,780.167 1258.83,937.833 1095.5,1095.5C 1091.17,1091.83 1087.17,1087.83 1083.5,1083.5C 1249.5,923.503 1415.16,763.169 1580.5,602.5 Z"/></g>
<g><path style="opacity:0.999" fill="#125f55" d="M 1585.5,622.5 C 1590.28,640.736 1592.95,659.403 1593.5,678.5C 1438.4,827.433 1283.73,976.933 1129.5,1127C 1128.91,1127.46 1128.24,1127.63 1127.5,1127.5C 1116.5,1117.17 1105.83,1106.5 1095.5,1095.5C 1258.83,937.833 1422.17,780.167 1585.5,622.5 Z"/></g>
<g><path style="opacity:0.999" fill="#5c2452" d="M 1674.5,629.5 C 1682.83,637.167 1690.83,645.167 1698.5,653.5C 1698.5,1034.83 1698.5,1416.17 1698.5,1797.5C 1690.83,1805.83 1682.83,1813.83 1674.5,1821.5C 1674.5,1424.17 1674.5,1026.83 1674.5,629.5 Z"/></g>
<g><path style="opacity:0.999" fill="#5f2454" d="M 1698.5,653.5 C 1714.5,668.833 1730.17,684.5 1745.5,700.5C 1745.5,1050.5 1745.5,1400.5 1745.5,1750.5C 1730.17,1766.5 1714.5,1782.17 1698.5,1797.5C 1698.5,1416.17 1698.5,1034.83 1698.5,653.5 Z"/></g>
<g><path style="opacity:0.999" fill="#115c52" d="M 1593.5,678.5 C 1594.49,687.986 1594.83,697.652 1594.5,707.5C 1443.53,852.134 1293.2,997.467 1143.5,1143.5C 1137.83,1138.5 1132.5,1133.17 1127.5,1127.5C 1128.24,1127.63 1128.91,1127.46 1129.5,1127C 1283.73,976.933 1438.4,827.433 1593.5,678.5 Z"/></g>
<g><path style="opacity:0.997" fill="#612656" d="M 1745.5,700.5 C 1920.7,875.199 2095.7,1050.03 2270.5,1225C 2096,1400.66 1921,1575.83 1745.5,1750.5C 1745.5,1400.5 1745.5,1050.5 1745.5,700.5 Z"/></g>
<g><path style="opacity:0.999" fill="#10594f" d="M 1594.5,707.5 C 1594.43,725.792 1592.77,743.792 1589.5,761.5C 1448.84,896.831 1308.5,1032.5 1168.5,1168.5C 1159.83,1160.5 1151.5,1152.17 1143.5,1143.5C 1293.2,997.467 1443.53,852.134 1594.5,707.5 Z"/></g>
<g><path style="opacity:0.999" fill="#10554c" d="M 1589.5,761.5 C 1586.29,784.797 1580.62,807.464 1572.5,829.5C 1445.89,950.445 1319.89,1072.11 1194.5,1194.5C 1185.5,1186.17 1176.83,1177.5 1168.5,1168.5C 1308.5,1032.5 1448.84,896.831 1589.5,761.5 Z"/></g>
<g><path style="opacity:0.998" fill="#0f5249" d="M 1572.5,829.5 C 1568.1,841.29 1563.44,852.957 1558.5,864.5C 1557.26,865.965 1556.26,867.632 1555.5,869.5C 1547.72,876.103 1540.06,882.937 1532.5,890C 1423.63,995.367 1314.97,1100.87 1206.5,1206.5C 1202.17,1202.83 1198.17,1198.83 1194.5,1194.5C 1319.89,1072.11 1445.89,950.445 1572.5,829.5 Z"/></g>
<g><path style="opacity:1" fill="#522049" d="M 1558.5,864.5 C 1558.5,1104.83 1558.5,1345.17 1558.5,1585.5C 1547.37,1563.9 1534.7,1543.23 1520.5,1523.5C 1520.5,1324.5 1520.5,1125.5 1520.5,926.5C 1533.41,908.364 1545.08,889.364 1555.5,869.5C 1556.26,867.632 1557.26,865.965 1558.5,864.5 Z"/></g>
<g><path style="opacity:0.998" fill="#104f47" d="M 1555.5,869.5 C 1545.08,889.364 1533.41,908.364 1520.5,926.5C 1500.93,949.075 1480.6,971.075 1459.5,992.5C 1444.83,1006.5 1430.5,1020.83 1416.5,1035.5C 1397.5,1053.83 1378.83,1072.5 1360.5,1091.5C 1349.17,1102.17 1338.17,1113.17 1327.5,1124.5C 1293.5,1157.83 1259.83,1191.5 1226.5,1225.5C 1225.83,1225.5 1225.17,1225.5 1224.5,1225.5C 1218.5,1219.17 1212.5,1212.83 1206.5,1206.5C 1314.97,1100.87 1423.63,995.367 1532.5,890C 1540.06,882.937 1547.72,876.103 1555.5,869.5 Z"/></g>
<g><path style="opacity:1" fill="#4f1f46" d="M 1520.5,926.5 C 1520.5,1125.5 1520.5,1324.5 1520.5,1523.5C 1511.91,1513.06 1503.07,1502.73 1494,1492.5C 1482.3,1480.97 1470.8,1469.3 1459.5,1457.5C 1459.5,1302.5 1459.5,1147.5 1459.5,992.5C 1480.6,971.075 1500.93,949.075 1520.5,926.5 Z"/></g>
<g><path style="opacity:1" fill="#4c1d43" d="M 1459.5,992.5 C 1459.5,1147.5 1459.5,1302.5 1459.5,1457.5C 1444.83,1443.5 1430.5,1429.17 1416.5,1414.5C 1416.5,1288.17 1416.5,1161.83 1416.5,1035.5C 1430.5,1020.83 1444.83,1006.5 1459.5,992.5 Z"/></g>
<g><path style="opacity:1" fill="#481c40" d="M 1416.5,1035.5 C 1416.5,1161.83 1416.5,1288.17 1416.5,1414.5C 1397.5,1396.17 1378.83,1377.5 1360.5,1358.5C 1360.5,1269.5 1360.5,1180.5 1360.5,1091.5C 1378.83,1072.5 1397.5,1053.83 1416.5,1035.5 Z"/></g>
<g><path style="opacity:1" fill="#451b3d" d="M 1360.5,1091.5 C 1360.5,1180.5 1360.5,1269.5 1360.5,1358.5C 1349.17,1347.83 1338.17,1336.83 1327.5,1325.5C 1327.5,1258.5 1327.5,1191.5 1327.5,1124.5C 1338.17,1113.17 1349.17,1102.17 1360.5,1091.5 Z"/></g>
<g><path style="opacity:1" fill="#421a3a" d="M 1327.5,1124.5 C 1327.5,1191.5 1327.5,1258.5 1327.5,1325.5C 1293.83,1292.17 1260.17,1258.83 1226.5,1225.5C 1259.83,1191.5 1293.5,1157.83 1327.5,1124.5 Z"/></g>
<g><path style="opacity:0.999" fill="#fe6700" d="M 1224.5,1225.5 C 1225.17,1225.5 1225.83,1225.5 1226.5,1225.5C 1260.17,1258.83 1293.83,1292.17 1327.5,1325.5C 1338.17,1336.83 1349.17,1347.83 1360.5,1358.5C 1378.83,1377.5 1397.5,1396.17 1416.5,1414.5C 1430.5,1429.17 1444.83,1443.5 1459.5,1457.5C 1470.8,1469.3 1482.3,1480.97 1494,1492.5C 1503.07,1502.73 1511.91,1513.06 1520.5,1523.5C 1534.7,1543.23 1547.37,1563.9 1558.5,1585.5C 1592.29,1656.69 1602.62,1731.02 1589.5,1808.5C 1431.5,1650.83 1273.5,1493.17 1115.5,1335.5C 1151.83,1298.83 1188.17,1262.17 1224.5,1225.5 Z"/></g>
<g><path style="opacity:0.987" fill="#10554c" d="M 2478.5,1225.5 C 2479.17,1225.5 2479.83,1225.5 2480.5,1225.5C 2492.83,1237.17 2504.83,1249.17 2516.5,1261.5C 2351.83,1425.83 2187.17,1590.17 2022.5,1754.5C 2021.24,1711.11 2034.74,1673.11 2063,1640.5C 2201.37,1501.97 2339.87,1363.63 2478.5,1225.5 Z"/></g>
<g><path style="opacity:0.998" fill="#10594f" d="M 2516.5,1261.5 C 2530.5,1274.83 2544.17,1288.5 2557.5,1302.5C 2385.17,1475.17 2212.83,1647.83 2040.5,1820.5C 2029.53,1799.98 2023.53,1777.98 2022.5,1754.5C 2187.17,1590.17 2351.83,1425.83 2516.5,1261.5 Z"/></g>
<g><path style="opacity:0.998" fill="#115c52" d="M 2557.5,1302.5 C 2566.17,1310.5 2574.5,1318.83 2582.5,1327.5C 2408.17,1501.5 2233.83,1675.5 2059.5,1849.5C 2051.91,1840.66 2045.58,1830.99 2040.5,1820.5C 2212.83,1647.83 2385.17,1475.17 2557.5,1302.5 Z"/></g>
<g><path style="opacity:0.999" fill="#125f55" d="M 2582.5,1327.5 C 2598.83,1343.17 2614.83,1359.17 2630.5,1375.5C 2456.17,1549.5 2281.83,1723.5 2107.5,1897.5C 2091.17,1881.83 2075.17,1865.83 2059.5,1849.5C 2233.83,1675.5 2408.17,1501.5 2582.5,1327.5 Z"/></g>
<g><path style="opacity:0.999" fill="#fe6d03" d="M 1115.5,1335.5 C 1273.5,1493.17 1431.5,1650.83 1589.5,1808.5C 1582.65,1851.37 1568.65,1891.71 1547.5,1929.5C 1376.17,1758.83 1205.17,1587.83 1034.5,1416.5C 1061.17,1389.17 1088.17,1362.17 1115.5,1335.5 Z"/></g>
<g><path style="opacity:0.999" fill="#126258" d="M 2630.5,1375.5 C 2636.5,1380.83 2642.17,1386.5 2647.5,1392.5C 2473.5,1566.83 2299.5,1741.17 2125.5,1915.5C 2119.17,1909.83 2113.17,1903.83 2107.5,1897.5C 2281.83,1723.5 2456.17,1549.5 2630.5,1375.5 Z"/></g>
<g><path style="opacity:0.999" fill="#13665b" d="M 2647.5,1392.5 C 2666.5,1410.83 2685.17,1429.5 2703.5,1448.5C 2529.17,1622.5 2354.83,1796.5 2180.5,1970.5C 2161.83,1952.5 2143.5,1934.17 2125.5,1915.5C 2299.5,1741.17 2473.5,1566.83 2647.5,1392.5 Z"/></g>
<g><path style="opacity:0.999" fill="#fe7205" d="M 1034.5,1416.5 C 1205.17,1587.83 1376.17,1758.83 1547.5,1929.5C 1534.03,1951.96 1519.03,1973.29 1502.5,1993.5C 1502.17,1994.5 1501.5,1995.17 1500.5,1995.5C 1325.55,1822.22 1151.21,1648.22 977.5,1473.5C 996.167,1454.17 1015.17,1435.17 1034.5,1416.5 Z"/></g>
<g><path style="opacity:0.999" fill="#14695e" d="M 2703.5,1448.5 C 2710.5,1454.83 2717.17,1461.5 2723.5,1468.5C 2549.17,1642.5 2374.83,1816.5 2200.5,1990.5C 2193.5,1984.17 2186.83,1977.5 2180.5,1970.5C 2354.83,1796.5 2529.17,1622.5 2703.5,1448.5 Z"/></g>
<g><path style="opacity:0.999" fill="#146c61" d="M 2723.5,1468.5 C 2741.5,1485.83 2759.17,1503.5 2776.5,1521.5C 2603.17,1694.5 2429.83,1867.5 2256.5,2040.5C 2236.34,2025.68 2217.67,2009.01 2200.5,1990.5C 2374.83,1816.5 2549.17,1642.5 2723.5,1468.5 Z"/></g>
<g><path style="opacity:0.999" fill="#fe7507" d="M 977.5,1473.5 C 1151.21,1648.22 1325.55,1822.22 1500.5,1995.5C 1492.5,2004.17 1484.17,2012.5 1475.5,2020.5C 1301.17,1846.5 1126.83,1672.5 952.5,1498.5C 960.5,1489.83 968.833,1481.5 977.5,1473.5 Z"/></g>
<g><path style="opacity:0.998" fill="#fe7908" d="M 952.5,1498.5 C 1126.83,1672.5 1301.17,1846.5 1475.5,2020.5C 1448.5,2048.17 1421.17,2075.5 1393.5,2102.5C 1219.5,1928.17 1045.5,1753.83 871.5,1579.5C 898.167,1552.17 925.167,1525.17 952.5,1498.5 Z"/></g>
<g><path style="opacity:0.999" fill="#156f64" d="M 2776.5,1521.5 C 2780.83,1525.17 2784.83,1529.17 2788.5,1533.5C 2616.17,1706.5 2443.5,1879.17 2270.5,2051.5C 2265.23,2048.57 2260.57,2044.9 2256.5,2040.5C 2429.83,1867.5 2603.17,1694.5 2776.5,1521.5 Z"/></g>
<g><path style="opacity:0.998" fill="#157367" d="M 2788.5,1533.5 C 2810.17,1554.5 2831.5,1575.83 2852.5,1597.5C 2684.5,1765.83 2516.5,1934.17 2348.5,2102.5C 2321.12,2087.49 2295.12,2070.49 2270.5,2051.5C 2443.5,1879.17 2616.17,1706.5 2788.5,1533.5 Z"/></g>
<g><path style="opacity:0.998" fill="#fe7f0b" d="M 871.5,1579.5 C 1045.5,1753.83 1219.5,1928.17 1393.5,2102.5C 1367.83,2128.83 1341.83,2154.83 1315.5,2180.5C 1141.5,2006.17 967.5,1831.83 793.5,1657.5C 819.167,1631.17 845.167,1605.17 871.5,1579.5 Z"/></g>
<g><path style="opacity:0.998" fill="#167769" d="M 2852.5,1597.5 C 2855.17,1599.5 2857.5,1601.83 2859.5,1604.5C 2692.17,1772.17 2524.83,1939.83 2357.5,2107.5C 2354.01,2106.59 2351.01,2104.92 2348.5,2102.5C 2516.5,1934.17 2684.5,1765.83 2852.5,1597.5 Z"/></g>
<g><path style="opacity:0.998" fill="#17796c" d="M 2859.5,1604.5 C 2879.17,1623.5 2898.5,1642.83 2917.5,1662.5C 2756.5,1822.83 2595.83,1983.5 2435.5,2144.5C 2408.44,2134.3 2382.44,2121.97 2357.5,2107.5C 2524.83,1939.83 2692.17,1772.17 2859.5,1604.5 Z"/></g>
<g><path style="opacity:0.998" fill="#fe820c" d="M 793.5,1657.5 C 967.5,1831.83 1141.5,2006.17 1315.5,2180.5C 1310.17,2186.5 1304.5,2192.17 1298.5,2197.5C 1124.5,2023.17 950.5,1848.83 776.5,1674.5C 781.833,1668.5 787.5,1662.83 793.5,1657.5 Z"/></g>
<g><path style="opacity:0.998" fill="#187d6f" d="M 2917.5,1662.5 C 2922.5,1666.83 2927.17,1671.5 2931.5,1676.5C 2772.5,1834.83 2613.83,1993.5 2455.5,2152.5C 2448.54,2150.35 2441.87,2147.68 2435.5,2144.5C 2595.83,1983.5 2756.5,1822.83 2917.5,1662.5 Z"/></g>
<g><path style="opacity:0.998" fill="#fe860e" d="M 776.5,1674.5 C 950.5,1848.83 1124.5,2023.17 1298.5,2197.5C 1271.83,2224.83 1244.83,2251.83 1217.5,2278.5C 1043.17,2104.5 868.833,1930.5 694.5,1756.5C 721.5,1728.83 748.833,1701.5 776.5,1674.5 Z"/></g>
<g><path style="opacity:0.998" fill="#187f72" d="M 2931.5,1676.5 C 2944.5,1688.83 2957.17,1701.5 2969.5,1714.5C 2818.17,1866.17 2666.83,2017.83 2515.5,2169.5C 2495.13,2165.07 2475.13,2159.41 2455.5,2152.5C 2613.83,1993.5 2772.5,1834.83 2931.5,1676.5 Z"/></g>
<g><path style="opacity:0.996" fill="#198375" d="M 2969.5,1714.5 C 3122.81,1867.15 3275.81,2020.15 3428.5,2173.5C 3135.5,2174.67 2842.5,2174.83 2549.5,2174C 2538.07,2173.15 2526.73,2171.65 2515.5,2169.5C 2666.83,2017.83 2818.17,1866.17 2969.5,1714.5 Z"/></g>
<g><path style="opacity:0.999" fill="#fe8c11" d="M 694.5,1756.5 C 868.833,1930.5 1043.17,2104.5 1217.5,2278.5C 1190.12,2305.89 1160.12,2329.89 1127.5,2350.5C 956.167,2179.5 784.833,2008.5 613.5,1837.5C 640.167,1810.17 667.167,1783.17 694.5,1756.5 Z"/></g>
<g><path style="opacity:0.999" fill="#fd9011" d="M 613.5,1837.5 C 784.833,2008.5 956.167,2179.5 1127.5,2350.5C 1125.8,2352.19 1123.8,2353.53 1121.5,2354.5C 950.833,2183.5 780.167,2012.5 609.5,1841.5C 610.5,1839.83 611.833,1838.5 613.5,1837.5 Z"/></g>
<g><path style="opacity:0.999" fill="#fd9213" d="M 609.5,1841.5 C 780.167,2012.5 950.833,2183.5 1121.5,2354.5C 1089.78,2375.37 1056.44,2393.7 1021.5,2409.5C 858.5,2245.83 695.167,2082.5 531.5,1919.5C 557.167,1893.17 583.167,1867.17 609.5,1841.5 Z"/></g>
<g><path style="opacity:0.999" fill="#fd9816" d="M 531.5,1919.5 C 695.167,2082.5 858.5,2245.83 1021.5,2409.5C 975.126,2431.85 926.459,2445.85 875.5,2451.5C 874.833,2451.5 874.167,2451.5 873.5,2451.5C 728.167,2305.5 582.5,2159.83 436.5,2014.5C 467.833,1982.5 499.5,1950.83 531.5,1919.5 Z"/></g>
<g><path style="opacity:0.998" fill="#fc9d17" d="M 436.5,2014.5 C 582.5,2159.83 728.167,2305.5 873.5,2451.5C 865.833,2451.5 858.167,2451.5 850.5,2451.5C 708.833,2309.5 567.167,2167.5 425.5,2025.5C 428.833,2021.5 432.5,2017.83 436.5,2014.5 Z"/></g>
<g><path style="opacity:0.997" fill="#fd9f19" d="M 425.5,2025.5 C 567.167,2167.5 708.833,2309.5 850.5,2451.5C 804.167,2451.5 757.833,2451.5 711.5,2451.5C 593.167,2332.5 474.5,2213.83 355.5,2095.5C 378.5,2071.83 401.833,2048.5 425.5,2025.5 Z"/></g>
<g><path style="opacity:0.995" fill="#fca31a" d="M 355.5,2095.5 C 474.5,2213.83 593.167,2332.5 711.5,2451.5C 474.167,2451.5 236.833,2451.5 -0.5,2451.5C -0.5,2451.17 -0.5,2450.83 -0.5,2450.5C 118.167,2332.17 236.833,2213.83 355.5,2095.5 Z"/></g>
</svg>
